<?xml version="1.0" encoding="UTF-8"?>
<svg version="1.1" xmlns="http://www.w3.org/2000/svg" width="470" height="85">
<path d="M0 0 C4.62 0 9.24 0 14 0 C14 12.54 14 25.08 14 38 C23.51920834 38.11402945 23.51920834 38.11402945 27 34 C23.535 33.505 23.535 33.505 20 33 C20 28.38 20 23.76 20 19 C30.56 19 41.12 19 52 19 C52 29.56 52 40.12 52 51 C49.27157939 52.36421031 47.39046682 51.87807211 44.375 51.5625 C43.37210938 51.46066406 42.36921875 51.35882813 41.3359375 51.25390625 C40.56507812 51.17011719 39.79421875 51.08632812 39 51 C39 48.36 39 45.72 39 43 C37.68712379 44.14540225 36.37470979 45.29133433 35.0625 46.4375 C34.33160156 47.07558594 33.60070312 47.71367188 32.84765625 48.37109375 C31.87860647 49.22541459 30.91348825 50.08651175 30 51 C27.78144736 51.08783542 25.56011504 51.10694609 23.33984375 51.09765625 C22.12417725 51.09515869 20.90851074 51.09266113 19.65600586 51.09008789 C18.09889893 51.08098389 16.54179199 51.07187988 14.9375 51.0625 C10.008125 51.041875 5.07875 51.02125 0 51 C0 34.17 0 17.34 0 0 Z " fill="#3C8A91" transform="translate(40,25)"/>
<path d="M0 0 C1.98 0 3.96 0 6 0 C6 1.98 6 3.96 6 6 C7.32 6 8.64 6 10 6 C10 7.32 10 8.64 10 10 C8.68 10 7.36 10 6 10 C6.33 12.97 6.66 15.94 7 19 C7.99 19.33 8.98 19.66 10 20 C10 21.32 10 22.64 10 24 C8.54257537 24.08096803 7.08387193 24.13917774 5.625 24.1875 C4.81289063 24.22230469 4.00078125 24.25710937 3.1640625 24.29296875 C2.44992187 24.19628906 1.73578125 24.09960938 1 24 C-1.28062828 20.57905758 -1.21925007 19.31812778 -1.125 15.3125 C-1.10695313 14.31863281 -1.08890625 13.32476562 -1.0703125 12.30078125 C-1.04710937 11.54152344 -1.02390625 10.78226563 -1 10 C-1.99 10 -2.98 10 -4 10 C-4 14.62 -4 19.24 -4 24 C-6.45898655 24.08076963 -8.91533742 24.14037143 -11.375 24.1875 C-12.07367188 24.21263672 -12.77234375 24.23777344 -13.4921875 24.26367188 C-15.5234375 24.29296875 -15.5234375 24.29296875 -19 24 C-21.45391569 20.31912647 -21.22802759 17.55644412 -21.125 13.3125 C-21.11597656 12.61060547 -21.10695313 11.90871094 -21.09765625 11.18554688 C-21.07413704 9.45688475 -21.03826713 7.72839855 -21 6 C-18.69 6 -16.38 6 -14 6 C-14 10.29 -14 14.58 -14 19 C-13.34 18.67 -12.68 18.34 -12 18 C-11.53101037 15.1840151 -11.53101037 15.1840151 -11.375 11.9375 C-11.30023438 10.83277344 -11.22546875 9.72804688 -11.1484375 8.58984375 C-11.09945313 7.73519531 -11.05046875 6.88054688 -11 6 C-7.7 5.67 -4.4 5.34 -1 5 C-0.67 3.35 -0.34 1.7 0 0 Z " fill="#229692" transform="translate(333,30)"/>
<path d="M0 0 C4.29 0 8.58 0 13 0 C13 10.56 13 21.12 13 32 C8.71 32 4.42 32 0 32 C0 21.44 0 10.88 0 0 Z " fill="#1F2E3D" transform="translate(79,6)"/>
<path d="M0 0 C0.78375 0.04125 1.5675 0.0825 2.375 0.125 C2.375 1.775 2.375 3.425 2.375 5.125 C1.385 5.62 1.385 5.62 0.375 6.125 C0.436875 6.888125 0.49875 7.65125 0.5625 8.4375 C0.375 11.125 0.375 11.125 -0.625 12.875 C-3.79115889 14.85384931 -6.92793552 14.82196193 -10.625 15.125 C-7.75599945 16.55950027 -4.89027087 16.50411083 -1.71875 16.74609375 C0.375 17.125 0.375 17.125 2.375 19.125 C2.75 21.5625 2.75 21.5625 2.375 24.125 C-0.05067201 26.64051171 -1.46334373 27.10745737 -4.97265625 27.48828125 C-6.19855469 27.47152344 -7.42445313 27.45476563 -8.6875 27.4375 C-9.91597656 27.43363281 -11.14445313 27.42976563 -12.41015625 27.42578125 C-15.625 27.125 -15.625 27.125 -18.625 25.125 C-18.51057539 23.52004433 -18.38305306 21.91601881 -18.25 20.3125 C-18.14558594 18.97251953 -18.14558594 18.97251953 -18.0390625 17.60546875 C-17.625 15.125 -17.625 15.125 -15.625 12.125 C-16.42661791 9.45354463 -16.42661791 9.45354463 -17.625 7.125 C-15.8207043 4.69312319 -14.45331185 3.28242339 -11.42578125 2.70703125 C-9.83579472 2.57133192 -8.24271801 2.46729347 -6.6484375 2.3984375 C-3.58373576 1.98428862 -3.28013775 0.15619704 0 0 Z M-8.625 6.125 C-9.615 6.62 -9.615 6.62 -10.625 7.125 C-10.625 8.115 -10.625 9.105 -10.625 10.125 C-9.635 10.455 -8.645 10.785 -7.625 11.125 C-7.295 9.805 -6.965 8.485 -6.625 7.125 C-7.285 6.795 -7.945 6.465 -8.625 6.125 Z M-11.625 21.125 C-11.955 21.785 -12.285 22.445 -12.625 23.125 C-9.76721967 23.80993373 -9.76721967 23.80993373 -6.625 24.125 C-5.635 23.465 -4.645 22.805 -3.625 22.125 C-6.265 21.795 -8.905 21.465 -11.625 21.125 Z " fill="#1F9995" transform="translate(162.625,32.875)"/>
<path d="M0 0 C2.31 0 4.62 0 7 0 C7 1.65 7 3.3 7 5 C7.99 5 8.98 5 10 5 C10.33 3.35 10.66 1.7 11 0 C12.98 0 14.96 0 17 0 C17 1.98 17 3.96 17 6 C18.32 6 19.64 6 21 6 C21 7.32 21 8.64 21 10 C19.68 10 18.36 10 17 10 C17.33 12.97 17.66 15.94 18 19 C18.99 19.33 19.98 19.66 21 20 C21 21.32 21 22.64 21 24 C19.54257537 24.08096803 18.08387193 24.13917774 16.625 24.1875 C15.81289062 24.22230469 15.00078125 24.25710937 14.1640625 24.29296875 C13.44992188 24.19628906 12.73578125 24.09960938 12 24 C9.71937172 20.57905758 9.78074993 19.31812778 9.875 15.3125 C9.89304688 14.31863281 9.91109375 13.32476562 9.9296875 12.30078125 C9.95289063 11.54152344 9.97609375 10.78226563 10 10 C9.01 10 8.02 10 7 10 C7 14.62 7 19.24 7 24 C4.69 24 2.38 24 0 24 C0 16.08 0 8.16 0 0 Z " fill="#189F9B" transform="translate(212,30)"/>
<path d="M0 0 C2.28226374 1.4574101 3.34665441 2.79553922 5 5 C2 7 2 7 -2 7 C-2 6.34 -2 5.68 -2 5 C-3.65 5.33 -5.3 5.66 -7 6 C-6.46375 6.268125 -5.9275 6.53625 -5.375 6.8125 C-4.59125 7.204375 -3.8075 7.59625 -3 8 C-1.96875 8.495 -0.9375 8.99 0.125 9.5 C3 11 3 11 5 13 C5.60065303 16.86134088 5.28529173 18.54746829 3.1875 21.875 C-1.43236593 24.95491062 -5.59929501 25.03641715 -11 24 C-14.1875 21.625 -14.1875 21.625 -16 19 C-16 18.34 -16 17.68 -16 17 C-12.6875 16.3125 -12.6875 16.3125 -9 16 C-7.3125 17.4375 -7.3125 17.4375 -6 19 C-4.68 19 -3.36 19 -2 19 C-2 18.01 -2 17.02 -2 16 C-2.60328125 15.91363281 -3.2065625 15.82726563 -3.828125 15.73828125 C-7.90242316 15.02199335 -10.42995659 14.48860864 -13.625 11.75 C-15 9 -15 9 -15 5.875 C-12.61165031 -0.99150537 -6.36466911 -1.1516041 0 0 Z " fill="#169E99" transform="translate(276,30)"/>
<path d="M0 0 C4.29 0 8.58 0 13 0 C13 7.59 13 15.18 13 23 C8.71 23 4.42 23 0 23 C0 15.41 0 7.82 0 0 Z " fill="#202F3E" transform="translate(60,15)"/>
<path d="M0 0 C13.39066339 -0.49140049 13.39066339 -0.49140049 15.9375 1.5625 C17.3921441 4.8996247 17.28820762 7.6245257 17.1875 11.25 C17.16042969 12.51328125 17.13335937 13.7765625 17.10546875 15.078125 C17.07066406 16.04234375 17.03585937 17.0065625 17 18 C14.69 18 12.38 18 10 18 C9.67 13.71 9.34 9.42 9 5 C8.67 5 8.34 5 8 5 C7.67 9.29 7.34 13.58 7 18 C4.69 18 2.38 18 0 18 C0 12.06 0 6.12 0 0 Z " fill="#239794" transform="translate(373,36)"/>
<path d="M0 0 C2.50160818 1.87620613 3.61945652 3.23891303 5 6 C5.41314256 10.6478538 4.78987316 13.24440152 2 17 C-1.46196518 18.73098259 -5.21454927 18.47149742 -9 18 C-12.41049703 15.86843936 -12.88307099 14.45936397 -13.875 10.5625 C-14.00130762 6.96273284 -13.7715742 5.10025484 -12 2 C-7.9983959 -0.66773607 -4.70568852 -0.71478813 0 0 Z M-5 4 C-7.36692966 6.84826598 -7.36692966 6.84826598 -6.625 10.1875 C-6.41875 11.115625 -6.2125 12.04375 -6 13 C-5.01 13 -4.02 13 -3 13 C-1.67254834 11.88741409 -1.67254834 11.88741409 -1.75 9.0625 C-1.87375 7.5465625 -1.87375 7.5465625 -2 6 C-2.99 5.34 -3.98 4.68 -5 4 Z " fill="#2A918E" transform="translate(366,36)"/>
<path d="M0 0 C3.72806384 0.809295 5.15735786 2.32101983 7.1953125 5.4765625 C7.88868343 8.3188103 7.88868343 10.6343147 7.1953125 13.4765625 C5.15735786 16.63210517 3.72806384 18.14383 0 18.953125 C-4.04348293 19.20667674 -6.12159962 19.00970426 -9.3671875 16.4765625 C-11.21762569 12.61477845 -11.60956687 9.67888007 -10.8046875 5.4765625 C-8.32882776 0.30955086 -5.3795366 -0.33733068 0 0 Z M-3.8046875 5.4765625 C-3.8046875 8.1165625 -3.8046875 10.7565625 -3.8046875 13.4765625 C-2.4846875 13.4765625 -1.1646875 13.4765625 0.1953125 13.4765625 C0.1953125 10.8365625 0.1953125 8.1965625 0.1953125 5.4765625 C-1.1246875 5.4765625 -2.4446875 5.4765625 -3.8046875 5.4765625 Z " fill="#2A938E" transform="translate(136.8046875,35.5234375)"/>
<path d="M0 0 C2.09375 0.4765625 2.09375 0.4765625 4.65625 2.4765625 C6.49847331 6.32120246 7.04646277 9.29474362 6.09375 13.4765625 C4.10453114 16.4603908 2.70872432 18.07933091 -0.84375 18.953125 C-4.76688492 19.23547183 -6.57737371 18.69581336 -9.90625 16.4765625 C-12.12511932 13.14825852 -12.66866935 11.33700915 -12.37890625 7.4140625 C-10.80609494 0.96683597 -5.89112864 -0.37310481 0 0 Z M-4.90625 5.4765625 C-4.90625 8.1165625 -4.90625 10.7565625 -4.90625 13.4765625 C-3.58625 13.4765625 -2.26625 13.4765625 -0.90625 13.4765625 C-0.90625 10.8365625 -0.90625 8.1965625 -0.90625 5.4765625 C-2.22625 5.4765625 -3.54625 5.4765625 -4.90625 5.4765625 Z " fill="#1F9A96" transform="translate(293.90625,35.5234375)"/>
<path d="M0 0 C2.09375 0.48828125 2.09375 0.48828125 4.65625 2.67578125 C6.09375 5.48828125 6.09375 5.48828125 6.09375 10.48828125 C2.46375 10.48828125 -1.16625 10.48828125 -4.90625 10.48828125 C-4.90625 11.47828125 -4.90625 12.46828125 -4.90625 13.48828125 C0.53875 12.99328125 0.53875 12.99328125 6.09375 12.48828125 C4.09375 17.48828125 4.09375 17.48828125 2.09375 18.48828125 C-2.64415088 19.13985897 -5.90144212 19.14448232 -9.96875 16.48828125 C-12.11391662 13.16673294 -12.6657793 11.30960106 -12.37890625 7.42578125 C-10.80395615 0.96978745 -5.89178109 -0.34368723 0 0 Z M-2.90625 4.48828125 C-3.89625 4.98328125 -3.89625 4.98328125 -4.90625 5.48828125 C-4.90625 6.14828125 -4.90625 6.80828125 -4.90625 7.48828125 C-3.25625 7.48828125 -1.60625 7.48828125 0.09375 7.48828125 C-0.89625 6.49828125 -1.88625 5.50828125 -2.90625 4.48828125 Z " fill="#1D9894" transform="translate(244.90625,35.51171875)"/>
<path d="M0 0 C0.78246094 -0.02578125 1.56492187 -0.0515625 2.37109375 -0.078125 C4.5625 0.25 4.5625 0.25 6.375 1.63671875 C6.766875 2.16910156 7.15875 2.70148437 7.5625 3.25 C7.125 5.3125 7.125 5.3125 6.5625 7.25 C7.2225 7.91 7.8825 8.57 8.5625 9.25 C9.11921955 14.48316372 9.11921955 14.48316372 7.3515625 16.91796875 C5.00343169 18.66624955 3.53018518 18.6512122 0.625 18.625 C-0.22964844 18.63273437 -1.08429688 18.64046875 -1.96484375 18.6484375 C-4.91675464 18.17277413 -6.31977182 17.34316056 -8.4375 15.25 C-8.4375 14.26 -8.4375 13.27 -8.4375 12.25 C-7.1175 11.92 -5.7975 11.59 -4.4375 11.25 C-5.4275 10.59 -6.4175 9.93 -7.4375 9.25 C-8.5325504 6.72296063 -8.59045704 5.6618074 -7.625 3.0625 C-5.59947255 -0.02909454 -3.47677489 0.06850788 0 0 Z M-0.4375 4.25 C-0.4375 4.91 -0.4375 5.57 -0.4375 6.25 C0.5525 5.92 1.5425 5.59 2.5625 5.25 C1.5725 4.92 0.5825 4.59 -0.4375 4.25 Z M-2.4375 12.25 C-0.4575 13.24 -0.4575 13.24 1.5625 14.25 C1.2325 13.59 0.9025 12.93 0.5625 12.25 C-0.4275 12.25 -1.4175 12.25 -2.4375 12.25 Z " fill="#1B9B96" transform="translate(399.4375,35.75)"/>
<path d="M0 0 C2.95626392 0.07140734 4.49382477 0.24851208 7.1875 1.5625 C8.625 3.3125 8.625 3.3125 8.625 7.3125 C6.645 7.3125 4.665 7.3125 2.625 7.3125 C2.625 6.6525 2.625 5.9925 2.625 5.3125 C1.305 5.3125 -0.015 5.3125 -1.375 5.3125 C-1.375 7.9525 -1.375 10.5925 -1.375 13.3125 C-0.055 13.3125 1.265 13.3125 2.625 13.3125 C2.625 12.6525 2.625 11.9925 2.625 11.3125 C4.605 11.3125 6.585 11.3125 8.625 11.3125 C8.3125 13.6875 8.3125 13.6875 7.625 16.3125 C3.59964442 18.99607039 0.35250362 18.98785766 -4.375 18.3125 C-7.77566339 16.18708538 -8.25751741 14.7432695 -9.3125 10.875 C-9.38235492 6.89326972 -8.77206001 5.41980001 -6.375 2.3125 C-3.97049822 -0.09200178 -3.29266058 0.01640861 0 0 Z " fill="#26948F" transform="translate(183.375,35.6875)"/>
<path d="M0 0 C2.31 0 4.62 0 7 0 C7 6.27 7 12.54 7 19 C10.3 19 13.6 19 17 19 C17 20.65 17 22.3 17 24 C11.39 24 5.78 24 0 24 C0 16.08 0 8.16 0 0 Z " fill="#159F9B" transform="translate(194,30)"/>
<path d="M0 0 C2.31 0 4.62 0 7 0 C7 6.27 7 12.54 7 19 C9.97 19 12.94 19 16 19 C16 20.65 16 22.3 16 24 C10.72 24 5.44 24 0 24 C0 16.08 0 8.16 0 0 Z " fill="#30928E" transform="translate(109,30)"/>
<path d="M0 0 C2.31 0 4.62 0 7 0 C7 7.92 7 15.84 7 24 C4.69 24 2.38 24 0 24 C0 16.08 0 8.16 0 0 Z " fill="#219794" transform="translate(302,30)"/>
<path d="M0 0 C2.31 0 4.62 0 7 0 C7 7.92 7 15.84 7 24 C4.69 24 2.38 24 0 24 C0 16.08 0 8.16 0 0 Z " fill="#1F9A96" transform="translate(344,30)"/>
<path d="M0 0 C2.31 0 4.62 0 7 0 C7 7.92 7 15.84 7 24 C4.69 24 2.38 24 0 24 C0 16.08 0 8.16 0 0 Z " fill="#1F9A98" transform="translate(166,30)"/>
<path d="M0 0 C1.98 0 3.96 0 6 0 C6 1.98 6 3.96 6 6 C7.32 6 8.64 6 10 6 C10 7.32 10 8.64 10 10 C8.68 10 7.36 10 6 10 C6.33 12.97 6.66 15.94 7 19 C7.99 19.33 8.98 19.66 10 20 C10 21.32 10 22.64 10 24 C8.54257537 24.08096803 7.08387193 24.13917774 5.625 24.1875 C4.81289062 24.22230469 4.00078125 24.25710937 3.1640625 24.29296875 C2.44992188 24.19628906 1.73578125 24.09960938 1 24 C-1.13586678 20.79619983 -1.23132175 19.98060033 -1.125 16.3125 C-1.10695312 15.50425781 -1.08890625 14.69601563 -1.0703125 13.86328125 C-1.04710937 13.24839844 -1.02390625 12.63351563 -1 12 C-0.34 12.66 0.32 13.32 1 14 C2.70840281 12.36587557 3.93453047 11.13093906 5 9 C4.34 8.67 3.68 8.34 3 8 C3.33 7.67 3.66 7.34 4 7 C4.04063832 5.33382885 4.042721 3.66611905 4 2 C3.01 1.67 2.02 1.34 1 1 C0.67 2.32 0.34 3.64 0 5 C0 3.35 0 1.7 0 0 Z " fill="#229691" transform="translate(223,30)"/>
<path d="M0 0 C2.28226374 1.4574101 3.34665441 2.79553922 5 5 C2 7 2 7 -2 7 C-2 6.34 -2 5.68 -2 5 C-3.65 5.33 -5.3 5.66 -7 6 C-6.46375 6.268125 -5.9275 6.53625 -5.375 6.8125 C-4.59125 7.204375 -3.8075 7.59625 -3 8 C-1.948125 8.495 -0.89625 8.99 0.1875 9.5 C3 11 3 11 4 13 C-5.59453303 11.25740319 -5.59453303 11.25740319 -9 8 C-8.67 6.02 -8.34 4.04 -8 2 C-9.98 2.99 -9.98 2.99 -12 4 C-12.16681109 6.91652174 -12.16681109 6.91652174 -12 10 C-9.80202597 12.19797403 -8.82453855 12.45897517 -5.875 13.125 C-3.956875 13.558125 -3.956875 13.558125 -2 14 C-2 14.66 -2 15.32 -2 16 C-6.58208612 15.34401758 -10.04724858 14.81664408 -13.625 11.75 C-15 9 -15 9 -15 5.875 C-12.61165031 -0.99150537 -6.36466911 -1.1516041 0 0 Z " fill="#289490" transform="translate(276,30)"/>
<path d="M0 0 C10.56 0 21.12 0 32 0 C32 10.56 32 21.12 32 32 C29.27157939 33.36421031 27.39046682 32.87807211 24.375 32.5625 C23.37210938 32.46066406 22.36921875 32.35882813 21.3359375 32.25390625 C20.56507812 32.17011719 19.79421875 32.08632812 19 32 C18.67 29.03 18.34 26.06 18 23 C18.66 23 19.32 23 20 23 C20 25.64 20 28.28 20 31 C23.3 30.34 26.6 29.68 30 29 C30.33 19.76 30.66 10.52 31 1 C21.1 1.33 11.2 1.66 1 2 C1 4.97 1 7.94 1 11 C3.31 11.33 5.62 11.66 8 12 C8 12.66 8 13.32 8 14 C5.36 14 2.72 14 0 14 C0 9.38 0 4.76 0 0 Z " fill="#467D83" transform="translate(60,44)"/>
<path d="M0 0 C0.33 0.66 0.66 1.32 1 2 C1.99 2 2.98 2 4 2 C4.33 4.31 4.66 6.62 5 9 C2.52076199 9.02685095 0.0418116 9.04676547 -2.4375 9.0625 C-3.14455078 9.07087891 -3.85160156 9.07925781 -4.58007812 9.08789062 C-6.38693559 9.09653588 -8.19387603 9.05220011 -10 9 C-11 8 -11 8 -11.375 5.625 C-11 3 -11 3 -8.875 1.1875 C-5.6892698 -0.12834508 -3.41335136 -0.23814079 0 0 Z M-4 3 C-4.99 3.495 -4.99 3.495 -6 4 C-6 4.66 -6 5.32 -6 6 C-4.35 6 -2.7 6 -1 6 C-1.99 5.01 -2.98 4.02 -4 3 Z " fill="#1F9894" transform="translate(246,37)"/>
<path d="M0 0 C2.98569614 0.25962575 5.27987208 0.52819206 7.8125 2.1875 C9.53400735 4.81506385 9.81599007 6.8718312 10 10 C9.1875 13.3125 9.1875 13.3125 8 16 C5.23749964 17.38125018 3.05268901 17.19079306 0 17 C-0.66 16.34 -1.32 15.68 -2 15 C-0.68 14.67 0.64 14.34 2 14 C2.59222907 10.98735648 3.05823431 8.07583023 3 5 C1.24905348 2.4094273 1.24905348 2.4094273 -1 1 C-0.67 0.67 -0.34 0.34 0 0 Z " fill="#1E9993" transform="translate(360,37)"/>
<path d="M0 0 C0.33 0 0.66 0 1 0 C1.44359263 3.81489658 1.26035293 5.58702639 -0.8125 8.875 C-5.43236593 11.95491062 -9.59929501 12.03641715 -15 11 C-18.1875 8.625 -18.1875 8.625 -20 6 C-20 5.34 -20 4.68 -20 4 C-16.6875 3.3125 -16.6875 3.3125 -13 3 C-11.3125 4.4375 -11.3125 4.4375 -10 6 C-8.68 6 -7.36 6 -6 6 C-5.67 5.01 -5.34 4.02 -5 3 C-5 4.32 -5 5.64 -5 7 C-3.68 7 -2.36 7 -1 7 C-0.67 4.69 -0.34 2.38 0 0 Z " fill="#219792" transform="translate(280,43)"/>
<path d="M0 0 C0.99 0 1.98 0 3 0 C3.33 5.94 3.66 11.88 4 18 C4.99 18.33 5.98 18.66 7 19 C6.67 19.99 6.34 20.98 6 22 C3.69 22 1.38 22 -1 22 C-1.02887814 18.52085059 -1.04675687 15.04173169 -1.0625 11.5625 C-1.07087891 10.56927734 -1.07925781 9.57605469 -1.08789062 8.55273438 C-1.09111328 7.60849609 -1.09433594 6.66425781 -1.09765625 5.69140625 C-1.10289307 4.81685791 -1.10812988 3.94230957 -1.11352539 3.04125977 C-1 1 -1 1 0 0 Z " fill="#189F99" transform="translate(112,31)"/>
<path d="M0 0 C2.31 0 4.62 0 7 0 C7 5.94 7 11.88 7 18 C6.34 18 5.68 18 5 18 C5 12.39 5 6.78 5 1 C4.01 1.33 3.02 1.66 2 2 C1.67 8.93 1.34 15.86 1 23 C2.65 23 4.3 23 6 23 C6 22.34 6 21.68 6 21 C6.66 21 7.32 21 8 21 C8 21.66 8 22.32 8 23 C10.31 22.34 12.62 21.68 15 21 C14.01 21 13.02 21 12 21 C12 20.34 12 19.68 12 19 C13.65 19 15.3 19 17 19 C17 20.65 17 22.3 17 24 C11.39 24 5.78 24 0 24 C0 16.08 0 8.16 0 0 Z " fill="#30908D" transform="translate(194,30)"/>
<path d="M0 0 C0.33 0 0.66 0 1 0 C1 12.21 1 24.42 1 37 C5.0425 36.855625 9.085 36.71125 13.25 36.5625 C15.15313965 36.49784546 15.15313965 36.49784546 17.09472656 36.43188477 C18.60244629 36.3747229 18.60244629 36.3747229 20.140625 36.31640625 C21.68024902 36.26141968 21.68024902 36.26141968 23.25097656 36.20532227 C25.68339127 36.02364724 27.72285987 35.86451669 30 35 C30.66 34.01 31.32 33.02 32 32 C32.66 32 33.32 32 34 32 C34 31.34 34 30.68 34 30 C34.99 30.33 35.98 30.66 37 31 C30 38 30 38 27.01904297 38.22705078 C25.77268066 38.21657715 24.52631836 38.20610352 23.2421875 38.1953125 C22.02901855 38.19031738 20.81584961 38.18532227 19.56591797 38.18017578 C18.01791504 38.16196777 16.46991211 38.14375977 14.875 38.125 C9.96625 38.08375 5.0575 38.0425 0 38 C0 25.46 0 12.92 0 0 Z " fill="#498086" transform="translate(40,38)"/>
<path d="M0 0 C2.31 0 4.62 0 7 0 C7 1.98 7 3.96 7 6 C7.66 6 8.32 6 9 6 C9.14285714 13.42857143 9.14285714 13.42857143 8 17 C6.68 17 5.36 17 4 17 C3.67 12.71 3.34 8.42 3 4 C1.68 3.67 0.36 3.34 -1 3 C-1 3.66 -1 4.32 -1 5 C-1.66 5 -2.32 5 -3 5 C-2.67 4.01 -2.34 3.02 -2 2 C-1.34 2 -0.68 2 0 2 C0 1.34 0 0.68 0 0 Z " fill="#1C9B96" transform="translate(380,36)"/>
<path d="M0 0 C0.99 0 1.98 0 3 0 C3.33975517 3.65236803 3.20830209 5.61672415 1.4375 8.875 C-1 11 -1 11 -4.5 11.5 C-9.7027027 10.75675676 -9.7027027 10.75675676 -12 8 C-12.25 4.8125 -12.25 4.8125 -12 2 C-11.01 1.67 -10.02 1.34 -9 1 C-9 2.98 -9 4.96 -9 7 C-6.69 7.33 -4.38 7.66 -2 8 C-1.855625 6.865625 -1.71125 5.73125 -1.5625 4.5625 C-1 1 -1 1 0 0 Z " fill="#179E9A" transform="translate(140,42)"/>
<path d="M0 0 C2.74606498 2.14327023 3.79050082 3.57703801 4.30078125 7.04296875 C4.375 9.1875 4.375 9.1875 4 13 C3.34 13.66 2.68 14.32 2 15 C2.04125 13.906875 2.0825 12.81375 2.125 11.6875 C2.32074666 7.91107771 2.32074666 7.91107771 0 5 C-0.33 4.34 -0.66 3.68 -1 3 C-0.97679687 3.69867188 -0.95359375 4.39734375 -0.9296875 5.1171875 C-0.90261719 6.48230469 -0.90261719 6.48230469 -0.875 7.875 C-0.85179687 8.77992187 -0.82859375 9.68484375 -0.8046875 10.6171875 C-1 13 -1 13 -3 15 C-3.99 15 -4.98 15 -6 15 C-6 14.34 -6 13.68 -6 13 C-5.01 13 -4.02 13 -3 13 C-3 10.36 -3 7.72 -3 5 C-4.32 5 -5.64 5 -7 5 C-7.33 4.34 -7.66 3.68 -8 3 C-10.02463255 2.34786708 -10.02463255 2.34786708 -12 2 C-7.9886007 -0.6742662 -4.71341965 -0.80825788 0 0 Z " fill="#27938C" transform="translate(296,36)"/>
<path d="M0 0 C0.99 0 1.98 0 3 0 C4.50156874 3.00313748 4.09281204 5.79067522 4.0625 9.125 C4.05347656 10.40632813 4.04445313 11.68765625 4.03515625 13.0078125 C4.02355469 13.99523438 4.01195312 14.98265625 4 16 C1.5625 15.625 1.5625 15.625 -1 15 C-1.33 14.34 -1.66 13.68 -2 13 C-1.67 12.34 -1.34 11.68 -1 11 C-0.7724985 9.12943209 -0.59037189 7.25314042 -0.4375 5.375 C-0.35371094 4.37210938 -0.26992188 3.36921875 -0.18359375 2.3359375 C-0.12300781 1.56507812 -0.06242187 0.79421875 0 0 Z " fill="#189F9B" transform="translate(323,37)"/>
<path d="M0 0 C2.375 0.4375 2.375 0.4375 5 2 C6.0734137 4.93776382 6.49542381 7.92318217 7 11 C7.33 11.99 7.66 12.98 8 14 C6.35 14 4.7 14 3 14 C1.20724134 10.88089144 0.65709282 8.32317572 0.375 4.75 C0.30023438 3.85796875 0.22546875 2.9659375 0.1484375 2.046875 C0.09945313 1.37140625 0.05046875 0.6959375 0 0 Z " fill="#179E99" transform="translate(332,39)"/>
<path d="M0 0 C1.98 0 3.96 0 6 0 C6 0.66 6 1.32 6 2 C4.68 2.33 3.36 2.66 2 3 C1.67 5.31 1.34 7.62 1 10 C-0.32 10.33 -1.64 10.66 -3 11 C-3.33 10.01 -3.66 9.02 -4 8 C-4.66 7.67 -5.32 7.34 -6 7 C-6 6.34 -6 5.68 -6 5 C-5.34 5 -4.68 5 -4 5 C-3.67 4.01 -3.34 3.02 -3 2 C-2.01 2 -1.02 2 0 2 C0 1.34 0 0.68 0 0 Z " fill="#189B97" transform="translate(180,39)"/>
<path d="M0 0 C0.66 0 1.32 0 2 0 C2 1.32 2 2.64 2 4 C0.68 4 -0.64 4 -2 4 C-1.67 6.97 -1.34 9.94 -1 13 C-0.01 13.33 0.98 13.66 2 14 C2 15.32 2 16.64 2 18 C0.54257537 18.08096803 -0.91612807 18.13917774 -2.375 18.1875 C-3.18710937 18.22230469 -3.99921875 18.25710937 -4.8359375 18.29296875 C-5.55007813 18.19628906 -6.26421875 18.09960938 -7 18 C-9.13586678 14.79619983 -9.23132175 13.98060033 -9.125 10.3125 C-9.10695313 9.50425781 -9.08890625 8.69601563 -9.0703125 7.86328125 C-9.04710937 7.24839844 -9.02390625 6.63351563 -9 6 C-8.67 6 -8.34 6 -8 6 C-7.34 9.3 -6.68 12.6 -6 16 C-4.35 16.33 -2.7 16.66 -1 17 C-1.66 16.01 -2.32 15.02 -3 14 C-3.1953125 11.30078125 -3.1953125 11.30078125 -3.125 8.3125 C-3.10695313 7.31863281 -3.08890625 6.32476562 -3.0703125 5.30078125 C-3.04710937 4.54152344 -3.02390625 3.78226563 -3 3 C-2.01 3 -1.02 3 0 3 C0 2.01 0 1.02 0 0 Z " fill="#2A8D88" transform="translate(341,36)"/>
<path d="M0 0 C0 0.66 0 1.32 0 2 C-1.98 2.99 -3.96 3.98 -6 5 C-5.01 6.32 -4.02 7.64 -3 9 C-4.8125 9.625 -4.8125 9.625 -7 10 C-10 8 -10 8 -10.75 6.0625 C-11 4 -11 4 -10 1 C-6.59437148 0.22157062 -3.49234244 -0.09978121 0 0 Z " fill="#1B9D9B" transform="translate(402,37)"/>
<path d="M0 0 C0.33 0 0.66 0 1 0 C1 4.62 1 9.24 1 14 C-3.95 14 -8.9 14 -14 14 C-14.33 13.34 -14.66 12.68 -15 12 C-13.68 12.33 -12.36 12.66 -11 13 C-10.731875 12.360625 -10.46375 11.72125 -10.1875 11.0625 C-9 9 -9 9 -6 8 C-6 8.99 -6 9.98 -6 11 C-3.525 11.99 -3.525 11.99 -1 13 C-1.01160156 12.39671875 -1.02320313 11.7934375 -1.03515625 11.171875 C-1.04417969 10.37265625 -1.05320312 9.5734375 -1.0625 8.75 C-1.07410156 7.96109375 -1.08570313 7.1721875 -1.09765625 6.359375 C-1.00385306 4.09308998 -0.63241063 2.1711105 0 0 Z " fill="#278F8B" transform="translate(328,40)"/>
<path d="M0 0 C0 1.32 0 2.64 0 4 C-1.65 4 -3.3 4 -5 4 C-2.36 4.33 0.28 4.66 3 5 C3 5.33 3 5.66 3 6 C1.41753293 6.08153933 -0.16616273 6.13943557 -1.75 6.1875 C-3.07257813 6.23970703 -3.07257813 6.23970703 -4.421875 6.29296875 C-7.49675097 5.94355103 -8.82639854 5.17867997 -11 3 C-11 2.01 -11 1.02 -11 0 C-6.98195309 -0.84098656 -3.98196457 -1.05404945 0 0 Z M-5 0 C-3.02 0.99 -3.02 0.99 -1 2 C-1.33 1.34 -1.66 0.68 -2 0 C-2.99 0 -3.98 0 -5 0 Z " fill="#25938E" transform="translate(402,48)"/>
<path d="M0 0 C0.33 0 0.66 0 1 0 C1 5.61 1 11.22 1 17 C4.21227702 15.3287364 4.21227702 15.3287364 4.73046875 12.3984375 C4.88128906 11.40070312 5.03210938 10.40296875 5.1875 9.375 C5.34605469 8.37210938 5.50460938 7.36921875 5.66796875 6.3359375 C5.77753906 5.56507812 5.88710937 4.79421875 6 4 C6.33 4 6.66 4 7 4 C7 8.62 7 13.24 7 18 C4.69 18 2.38 18 0 18 C0 12.06 0 6.12 0 0 Z " fill="#288D8A" transform="translate(212,36)"/>
<path d="M0 0 C1.48828125 1.05078125 1.48828125 1.05078125 3 3 C3.29296875 6.35546875 3.29296875 6.35546875 3.1875 10.1875 C3.16042969 11.45980469 3.13335937 12.73210938 3.10546875 14.04296875 C3.07066406 15.01878906 3.03585937 15.99460937 3 17 C0.69 17 -1.62 17 -4 17 C-4 13.04 -4 9.08 -4 5 C-3.67 5 -3.34 5 -3 5 C-3 8.63 -3 12.26 -3 16 C-1.68 16 -0.36 16 1 16 C1.33 12.37 1.66 8.74 2 5 C1.34 5 0.68 5 0 5 C0 3.35 0 1.7 0 0 Z " fill="#2E8D8D" transform="translate(387,37)"/>
<path d="M0 0 C1.17369141 -0.02513672 1.17369141 -0.02513672 2.37109375 -0.05078125 C5.07388797 0.39727555 5.96255607 1.11579242 7.5625 3.3125 C7.5625 4.3025 7.5625 5.2925 7.5625 6.3125 C0.8125 5.5625 0.8125 5.5625 -1.4375 3.3125 C-0.1175 3.3125 1.2025 3.3125 2.5625 3.3125 C2.5625 2.6525 2.5625 1.9925 2.5625 1.3125 C-1.8925 1.8075 -1.8925 1.8075 -6.4375 2.3125 C-4.02263057 -0.10236943 -3.31042211 0.0163075 0 0 Z " fill="#23928C" transform="translate(399.4375,35.6875)"/>
<path d="M0 0 C2.31 0 4.62 0 7 0 C7 1.65 7 3.3 7 5 C2.38 5 -2.24 5 -7 5 C-7 4.67 -7 4.34 -7 4 C-4.69 4 -2.38 4 0 4 C0 2.68 0 1.36 0 0 Z " fill="#1F948C" transform="translate(118,49)"/>
<path d="M0 0 C2.31 0 4.62 0 7 0 C7 1.65 7 3.3 7 5 C6.34 5 5.68 5 5 5 C5 5.66 5 6.32 5 7 C4.01 7 3.02 7 2 7 C2 6.34 2 5.68 2 5 C1.34 5 0.68 5 0 5 C0 3.35 0 1.7 0 0 Z " fill="#20948F" transform="translate(212,30)"/>
<path d="M0 0 C1.98828125 0.46875 1.98828125 0.46875 3.98828125 3.46875 C2.99828125 3.79875 2.00828125 4.12875 0.98828125 4.46875 C0.98828125 3.47875 0.98828125 2.48875 0.98828125 1.46875 C-0.26984375 1.778125 -1.52796875 2.0875 -2.82421875 2.40625 C-3.88576172 2.66728516 -3.88576172 2.66728516 -4.96875 2.93359375 C-6.66855077 3.37885705 -8.34473829 3.91308985 -10.01171875 4.46875 C-10.01171875 8.09875 -10.01171875 11.72875 -10.01171875 15.46875 C-12.01171875 13.46875 -12.01171875 13.46875 -12.44921875 9.65625 C-12.34023596 6.33227504 -11.97360962 5.40974232 -10.07421875 2.46875 C-6.43923243 0.09488138 -4.23968477 -0.05700416 0 0 Z " fill="#2D908A" transform="translate(245.01171875,35.53125)"/>
<path d="M0 0 C2.97 0 5.94 0 9 0 C9 3.38023517 8.12544378 5.83468937 7 9 C5.35 8.67 3.7 8.34 2 8 C2.33 6.68 2.66 5.36 3 4 C3 4.99 3 5.98 3 7 C3.99 7 4.98 7 6 7 C6 6.01 6 5.02 6 4 C4.02 3.01 2.04 2.02 0 1 C0 0.67 0 0.34 0 0 Z " fill="#1E918B" transform="translate(149,36)"/>
<path d="M0 0 C0.66 0 1.32 0 2 0 C2 3.3 2 6.6 2 10 C2.66 10 3.32 10 4 10 C4 10.66 4 11.32 4 12 C2.35 12 0.7 12 -1 12 C-1.02687279 10.18757948 -1.04633715 8.37504767 -1.0625 6.5625 C-1.07410156 5.55316406 -1.08570313 4.54382812 -1.09765625 3.50390625 C-1 1 -1 1 0 0 Z " fill="#169D98" transform="translate(315,38)"/>
<path d="M0 0 C1.98 0.495 1.98 0.495 4 1 C4 1.99 4 2.98 4 4 C3.34 4 2.68 4 2 4 C2.33 6.64 2.66 9.28 3 12 C2.01 11.67 1.02 11.34 0 11 C-0.84098656 6.98195309 -1.05404945 3.98196457 0 0 Z " fill="#169F98" transform="translate(355,39)"/>
<path d="M0 0 C1.65 0 3.3 0 5 0 C5 1.65 5 3.3 5 5 C0.05 5 -4.9 5 -10 5 C-8.68 4.67 -7.36 4.34 -6 4 C-6 3.34 -6 2.68 -6 2 C-5.34 2 -4.68 2 -4 2 C-4 2.66 -4 3.32 -4 4 C-1.69 3.34 0.62 2.68 3 2 C2.01 2 1.02 2 0 2 C0 1.34 0 0.68 0 0 Z " fill="#249290" transform="translate(206,49)"/>
<path d="M0 0 C0.99 0 1.98 0 3 0 C3.14285714 7.42857143 3.14285714 7.42857143 2 11 C1.01 11 0.02 11 -1 11 C-1.08912219 7.16774573 -0.87867729 3.73437848 0 0 Z " fill="#149F9C" transform="translate(386,42)"/>
<path d="M0 0 C5.46428571 0.60714286 5.46428571 0.60714286 7.875 2.375 C9 4 9 4 9 7 C8.01 7.33 7.02 7.66 6 8 C5.67 6.35 5.34 4.7 5 3 C2.03 2.505 2.03 2.505 -1 2 C-0.67 1.34 -0.34 0.68 0 0 Z " fill="#199F9A" transform="translate(360,37)"/>
<path d="M0 0 C3.63 0 7.26 0 11 0 C11 0.99 11 1.98 11 3 C5.06 3.495 5.06 3.495 -1 4 C-0.67 2.68 -0.34 1.36 0 0 Z " fill="#0F9B98" transform="translate(238,42)"/>
<path d="M0 0 C0.99 0.33 1.98 0.66 3 1 C2.34 1 1.68 1 1 1 C1 3.97 1 6.94 1 10 C3.31 10.33 5.62 10.66 8 11 C8 11.66 8 12.32 8 13 C5.36 13 2.72 13 0 13 C0 8.71 0 4.42 0 0 Z " fill="#448485" transform="translate(60,45)"/>
<path d="M0 0 C0.33 0 0.66 0 1 0 C1.66 3.3 2.32 6.6 3 10 C4.65 10.33 6.3 10.66 8 11 C8 10.01 8 9.02 8 8 C8.99 8 9.98 8 11 8 C11 9.32 11 10.64 11 12 C9.54257537 12.08096803 8.08387193 12.13917774 6.625 12.1875 C5.81289062 12.22230469 5.00078125 12.25710937 4.1640625 12.29296875 C3.44992188 12.19628906 2.73578125 12.09960938 2 12 C-0.13586678 8.79619983 -0.23132175 7.98060033 -0.125 4.3125 C-0.10695312 3.50425781 -0.08890625 2.69601563 -0.0703125 1.86328125 C-0.04710937 1.24839844 -0.02390625 0.63351563 0 0 Z " fill="#2F8F8A" transform="translate(222,42)"/>
<path d="M0 0 C1.17369141 -0.02513672 1.17369141 -0.02513672 2.37109375 -0.05078125 C5.02377163 0.38896749 5.885467 1.26878454 7.5625 3.3125 C7.046875 3.1475 6.53125 2.9825 6 2.8125 C2.63944708 2.12315581 -0.01315421 1.88445678 -3.4375 2.3125 C-5.93290371 5.17865486 -5.93290371 5.17865486 -7.4375 8.3125 C-8.0975 7.9825 -8.7575 7.6525 -9.4375 7.3125 C-5.21883125 0.02570853 -5.21883125 0.02570853 0 0 Z " fill="#2D908B" transform="translate(183.4375,35.6875)"/>
<path d="M0 0 C-0.66 1.65 -1.32 3.3 -2 5 C-2.66 4.67 -3.32 4.34 -4 4 C-3.67 3.34 -3.34 2.68 -3 2 C-3.99 2.495 -3.99 2.495 -5 3 C-6.99960012 3.039992 -9.00047242 3.04346799 -11 3 C-11 2.34 -11 1.68 -11 1 C-7.26562152 0.12132271 -3.83225427 -0.08912219 0 0 Z " fill="#298F8D" transform="translate(251,48)"/>
<path d="M0 0 C0.33 0 0.66 0 1 0 C1.125 5.75 1.125 5.75 0 8 C0.99 8.33 1.98 8.66 3 9 C3.33 10.65 3.66 12.3 4 14 C0.125 12.25 0.125 12.25 -1 10 C-1.1328125 8.125 -1.1328125 8.125 -1.125 6 C-1.12886719 4.948125 -1.12886719 4.948125 -1.1328125 3.875 C-1 2 -1 2 0 0 Z " fill="#289692" transform="translate(283,39)"/>
<path d="M0 0 C2.64 0 5.28 0 8 0 C8.33 1.32 8.66 2.64 9 4 C8.34 4 7.68 4 7 4 C7 3.34 7 2.68 7 2 C4.36 2.66 1.72 3.32 -1 4 C-0.67 2.68 -0.34 1.36 0 0 Z " fill="#179F9B" transform="translate(131,37)"/>
<path d="M0 0 C1.32 0 2.64 0 4 0 C4.33 0.99 4.66 1.98 5 3 C3.35 3 1.7 3 0 3 C0 3.66 0 4.32 0 5 C-1.65 4.67 -3.3 4.34 -5 4 C-5 3.34 -5 2.68 -5 2 C-3.35 2 -1.7 2 0 2 C0 1.34 0 0.68 0 0 Z " fill="#199F9C" transform="translate(187,48)"/>
<path d="M0 0 C0.99 0.33 1.98 0.66 3 1 C3 2.65 3 4.3 3 6 C0.03 6 -2.94 6 -6 6 C-5.67 5.34 -5.34 4.68 -5 4 C-3.35 4.33 -1.7 4.66 0 5 C0 3.35 0 1.7 0 0 Z " fill="#12A097" transform="translate(402,47)"/>
<path d="M0 0 C2.31 0 4.62 0 7 0 C7 1.65 7 3.3 7 5 C5.68 4.67 4.36 4.34 3 4 C3.33 3.01 3.66 2.02 4 1 C3.01 1 2.02 1 1 1 C0.67 2.32 0.34 3.64 0 5 C0 3.35 0 1.7 0 0 Z " fill="#248D8A" transform="translate(344,30)"/>
<path d="M0 0 C0.66 0.33 1.32 0.66 2 1 C2.1875 3.875 2.1875 3.875 2 7 C1.01 7.66 0.02 8.32 -1 9 C-1 7.35 -1 5.7 -1 4 C-1.66 3.67 -2.32 3.34 -3 3 C-2.01 2.01 -1.02 1.02 0 0 Z " fill="#249590" transform="translate(406,44)"/>
<path d="M0 0 C1.65 0 3.3 0 5 0 C5 1.65 5 3.3 5 5 C3.02 4.34 1.04 3.68 -1 3 C-0.67 2.01 -0.34 1.02 0 0 Z " fill="#2B9491" transform="translate(160,33)"/>
<path d="M0 0 C0.33 0 0.66 0 1 0 C1 1.65 1 3.3 1 5 C0.01 5.495 0.01 5.495 -1 6 C-1.33 6.99 -1.66 7.98 -2 9 C-3.32 8.67 -4.64 8.34 -6 8 C-6 7.01 -6 6.02 -6 5 C-4.02 4.67 -2.04 4.34 0 4 C0 2.68 0 1.36 0 0 Z " fill="#1B9790" transform="translate(224,31)"/>
<path d="M0 0 C1.66666667 1.66666667 3.33333333 3.33333333 5 5 C5 5.99 5 6.98 5 8 C1.125 6.125 1.125 6.125 0 5 C-0.04063832 3.33382885 -0.042721 1.66611905 0 0 Z " fill="#18A09A" transform="translate(294,38)"/>
<path d="M0 0 C1.98 0.99 1.98 0.99 4 2 C3.67 3.98 3.34 5.96 3 8 C2.01 7.34 1.02 6.68 0 6 C-0.1875 2.875 -0.1875 2.875 0 0 Z " fill="#10A19D" transform="translate(158,35)"/>
<path d="M0 0 C0.99 0.99 1.98 1.98 3 3 C0 5 0 5 -4 5 C-4 4.34 -4 3.68 -4 3 C-2.68 2.67 -1.36 2.34 0 2 C0 1.34 0 0.68 0 0 Z " fill="#2C9088" transform="translate(278,32)"/>
<path d="M0 0 C0.66 0 1.32 0 2 0 C2 0.99 2 1.98 2 3 C2.99 3 3.98 3 5 3 C5 3.66 5 4.32 5 5 C3.35 5.33 1.7 5.66 0 6 C0.33 5.01 0.66 4.02 1 3 C0.34 2.67 -0.32 2.34 -1 2 C-0.67 1.34 -0.34 0.68 0 0 Z " fill="#21938C" transform="translate(158,54)"/>
<path d="M0 0 C-0.33 0.66 -0.66 1.32 -1 2 C-1.99 1.67 -2.98 1.34 -4 1 C-3.67 2.65 -3.34 4.3 -3 6 C-3.66 6 -4.32 6 -5 6 C-5.66 4.35 -6.32 2.7 -7 1 C-4.53721199 -0.231394 -2.7204945 -0.07159196 0 0 Z " fill="#328F8C" transform="translate(267,46)"/>
</svg>
